<svg aria-hidden="true" xmlns="http://www.w3.org/2000/svg" width="24" height="24" viewBox="0 0 24 24">
    <path d="M11.9979 22.2033C11.6787 22.2033 11.4093 22.0936 11.1897 21.874C10.9702 21.6545 10.8604 21.3851 10.8604 21.0658V6.14792L7.18159 9.8077C6.97035 10.0229 6.7083 10.1337 6.39544 10.14C6.08257 10.1464 5.81419 10.0356 5.59029 9.8077C5.37905 9.59647 5.27344 9.33125 5.27344 9.01205C5.27344 8.69285 5.37905 8.42763 5.59029 8.2164L11.2022 2.60445C11.3142 2.49248 11.4375 2.41168 11.5721 2.36205C11.7067 2.31242 11.8486 2.2876 11.9979 2.2876C12.1472 2.2876 12.2901 2.31242 12.4267 2.36205C12.5633 2.41168 12.6876 2.49248 12.7995 2.60445L18.4115 8.2164C18.6227 8.42763 18.7293 8.68868 18.7313 8.99955C18.7333 9.31042 18.6267 9.5798 18.4115 9.8077C18.1836 10.0356 17.9142 10.1495 17.6033 10.1495C17.2924 10.1495 17.0231 10.0356 16.7952 9.8077L13.1354 6.14792V21.0658C13.1354 21.3851 13.0256 21.6545 12.806 21.874C12.5865 22.0936 12.3171 22.2034 11.9979 22.2033Z" fill="currentColor"/>
</svg>
