<svg aria-hidden="true" focusable="false" width="16" height="17" viewBox="0 0 16 17" xmlns="http://www.w3.org/2000/svg">
<path id="chevron_right" d="M8.74747 8.49974L6.21123 5.96351C6.07041 5.82268 6 5.64587 6 5.43307C6 5.22027 6.07041 5.04346 6.21123 4.90264C6.35206 4.76182 6.52887 4.69141 6.74167 4.69141C6.95447 4.69141 7.13128 4.76182 7.2721 4.90264L10.3348 7.96532C10.4094 8.03996 10.4639 8.12281 10.4984 8.21387C10.5328 8.30493 10.55 8.40022 10.55 8.49974C10.55 8.59926 10.5328 8.69455 10.4984 8.78561C10.4639 8.87667 10.4094 8.95952 10.3348 9.03416L7.2721 12.0968C7.13128 12.2377 6.95447 12.3081 6.74167 12.3081C6.52887 12.3081 6.35206 12.2377 6.21123 12.0968C6.07041 11.956 6 11.7792 6 11.5664C6 11.3536 6.07041 11.1768 6.21123 11.036L8.74747 8.49974Z" fill="#474C6B"/>
</svg>
