<svg width="24" height="24" xmlns="http://www.w3.org/2000/svg">
<path d="M13.1212 11.9996L9.31685 8.19526C9.10562 7.98403 9 7.71881 9 7.39961C9 7.08041 9.10562 6.81519 9.31685 6.60396C9.52808 6.39273 9.7933 6.28711 10.1125 6.28711C10.4317 6.28711 10.6969 6.39273 10.9081 6.60396L15.5022 11.198C15.6141 11.3099 15.6959 11.4342 15.7475 11.5708C15.7992 11.7074 15.825 11.8503 15.825 11.9996C15.825 12.1489 15.7992 12.2918 15.7475 12.4284C15.6959 12.565 15.6141 12.6893 15.5022 12.8012L10.9081 17.3953C10.6969 17.6065 10.4317 17.7121 10.1125 17.7121C9.7933 17.7121 9.52808 17.6065 9.31685 17.3953C9.10562 17.184 9 16.9188 9 16.5996C9 16.2804 9.10562 16.0152 9.31685 15.804L13.1212 11.9996Z" fill="currentColor"/>
</svg>
