<svg width="24" height="24" viewBox="0 0 24 24" xmlns="http://www.w3.org/2000/svg">
<path d="M4.93518 22.3407C4.30546 22.3407 3.76886 22.119 3.32538 21.6755C2.8819 21.232 2.66016 20.6954 2.66016 20.0657V7.27495C2.66016 6.95575 2.76994 6.68637 2.98951 6.4668C3.20907 6.24724 3.47846 6.13745 3.79766 6.13745C4.11687 6.13745 4.38626 6.24724 4.60583 6.4668C4.8254 6.68637 4.93518 6.95575 4.93518 7.27495V20.0657H14.7259C15.0451 20.0657 15.3145 20.1755 15.5341 20.3951C15.7536 20.6146 15.8634 20.884 15.8634 21.2032C15.8634 21.5224 15.7536 21.7918 15.5341 22.0114C15.3145 22.2309 15.0451 22.3407 14.7259 22.3407H4.93518ZM9.21018 18.0657C8.58046 18.0657 8.04386 17.844 7.60038 17.4005C7.15691 16.957 6.93518 16.4204 6.93518 15.7907V3.9342C6.93518 3.30449 7.15691 2.76789 7.60038 2.3244C8.04386 1.88092 8.58046 1.65918 9.21018 1.65918H18.0667C18.6964 1.65918 19.233 1.88092 19.6765 2.3244C20.12 2.76789 20.3417 3.30449 20.3417 3.9342V15.7907C20.3417 16.4204 20.12 16.957 19.6765 17.4005C19.233 17.844 18.6964 18.0657 18.0667 18.0657H9.21018ZM9.21018 15.7907H18.0667V3.9342H9.21018V15.7907Z" />
</svg>
