<svg width="32" height="32" viewBox="0 0 32 32" xmlns="http://www.w3.org/2000/svg">
    <path
        fill="currentColor"
        d="M16.0008 18.1217L9.59498 24.5275C9.31334 24.8092 8.95971 24.95 8.53411 24.95C8.10851 24.95 7.75489 24.8092 7.47325 24.5275C7.1916 24.2459 7.05078 23.8923 7.05078 23.4667C7.05078 23.0411 7.1916 22.6874 7.47325 22.4058L13.879 16L7.47325 9.59419C7.1916 9.31254 7.05078 8.95892 7.05078 8.53332C7.05078 8.10772 7.1916 7.7541 7.47325 7.47245C7.75489 7.19081 8.10851 7.04999 8.53411 7.04999C8.95971 7.04999 9.31334 7.19081 9.59498 7.47245L16.0008 13.8783L22.4066 7.47245C22.6882 7.19081 23.0418 7.04999 23.4674 7.04999C23.893 7.04999 24.2467 7.19081 24.5283 7.47245C24.81 7.7541 24.9508 8.10772 24.9508 8.53332C24.9508 8.95892 24.81 9.31254 24.5283 9.59419L18.1225 16L24.5283 22.4058C24.81 22.6874 24.9508 23.0411 24.9508 23.4667C24.9508 23.8923 24.81 24.2459 24.5283 24.5275C24.2467 24.8092 23.893 24.95 23.4674 24.95C23.0418 24.95 22.6882 24.8092 22.4066 24.5275L16.0008 18.1217Z"
    />
</svg>
