<svg width="24" height="24" viewBox="0 0 24 24" fill="none" xmlns="http://www.w3.org/2000/svg">
<path d="M12.0016 11.2133L8.32769 14.8872C8.0784 15.1364 7.7697 15.2611 7.40159 15.2611C7.03347 15.2611 6.72477 15.1364 6.47549 14.8872C6.2262 14.6379 6.10156 14.3292 6.10156 13.9611C6.10156 13.5929 6.2262 13.2842 6.47549 13.035L11.0614 8.44908C11.1896 8.32082 11.3356 8.22408 11.4994 8.15886C11.6632 8.09364 11.8306 8.06104 12.0016 8.06104C12.1726 8.06104 12.34 8.09364 12.5038 8.15886C12.6675 8.22408 12.8135 8.32082 12.9418 8.44908L17.5277 13.035C17.777 13.2842 17.9016 13.5929 17.9016 13.9611C17.9016 14.3292 17.777 14.6379 17.5277 14.8872C17.2784 15.1364 16.9697 15.2611 16.6016 15.2611C16.2335 15.2611 15.9248 15.1364 15.6755 14.8872L12.0016 11.2133Z" fill="currentColor"/>
</svg>
