<svg aria-hidden="true" focusable="false" width="24" height="24" viewBox="0 0 24 24" xmlns="http://www.w3.org/2000/svg">
<path d="M11.9 16.2C11.729 16.2 11.5616 16.1674 11.3979 16.1022C11.2341 16.037 11.0881 15.9402 10.9598 15.812L6.37393 11.2261C6.12464 10.9768 6 10.6681 6 10.3C6 9.93191 6.12464 9.62321 6.37393 9.37392C6.62321 9.12464 6.93191 9 7.30003 9C7.66814 9 7.97684 9.12464 8.22613 9.37392L11.9 13.0478L15.5739 9.37392C15.8232 9.12464 16.1319 9 16.5 9C16.8681 9 17.1768 9.12464 17.4261 9.37392C17.6754 9.62321 17.8 9.93191 17.8 10.3C17.8 10.6681 17.6754 10.9768 17.4261 11.2261L12.8403 15.812C12.712 15.9402 12.566 16.037 12.4022 16.1022C12.2384 16.1674 12.071 16.2 11.9 16.2Z" />
</svg>
