<svg role="img" width="24" height="24" viewBox="0 0 24 24" xmlns="http://www.w3.org/2000/svg">
<path d="M17.4417 13.325H2.86018C2.49205 13.325 2.17918 13.1962 1.92158 12.9386C1.66396 12.681 1.53516 12.3681 1.53516 12C1.53516 11.6319 1.66396 11.319 1.92158 11.0614C2.17918 10.8038 2.49205 10.6749 2.86018 10.6749H17.4275L14.0613 7.31194C13.8026 7.06266 13.6714 6.75342 13.6678 6.38422C13.6641 6.015 13.7953 5.70214 14.0613 5.44562C14.3105 5.19634 14.6216 5.07404 14.9944 5.07874C15.3672 5.08346 15.6783 5.21046 15.9276 5.45974L21.5417 11.0739C21.67 11.2021 21.7644 11.3482 21.8249 11.5119C21.8854 11.6757 21.9156 11.8431 21.9156 12.0141C21.9156 12.1851 21.8854 12.3502 21.8249 12.5092C21.7644 12.6683 21.67 12.8119 21.5417 12.9402L15.9276 18.5685C15.6783 18.8177 15.3714 18.9447 15.0069 18.9494C14.6424 18.9542 14.3272 18.8272 14.0613 18.5685C13.7953 18.3025 13.6623 17.9897 13.6623 17.6299C13.6623 17.2701 13.7953 16.9572 14.0613 16.6913L17.4417 13.325Z" />
</svg>
