<svg xmlns="http://www.w3.org/2000/svg" width="170" height="36" viewBox="0 0 170 36" fill="none">
    <path d="M67.537 10.3982V26.5871H64.4442V10.3982H67.537ZM59.2734 11.7755V8.92432H72.7078V11.7755H59.2734Z" fill="#0F24F7"/>
    <path d="M78.31 26.9012C77.1341 26.9012 76.0871 26.6354 75.1689 26.1038C74.2669 25.5561 73.5581 24.8151 73.0426 23.8809C72.5272 22.9305 72.2694 21.8432 72.2694 20.6189C72.2694 19.3786 72.5191 18.2832 73.0185 17.3328C73.5178 16.3825 74.2185 15.6415 75.1206 15.1099C76.0227 14.5622 77.0536 14.2884 78.2134 14.2884C79.4215 14.2884 80.4605 14.5461 81.3303 15.0616C82.2002 15.5609 82.8687 16.2616 83.3358 17.1637C83.8191 18.0658 84.0607 19.145 84.0607 20.4015V21.2955L73.8158 21.3196L73.8641 19.435H81.137C81.137 18.6135 80.8713 17.953 80.3397 17.4537C79.8242 16.9543 79.1235 16.7046 78.2376 16.7046C77.5449 16.7046 76.9569 16.8496 76.4737 17.1395C76.0066 17.4295 75.6522 17.8644 75.4105 18.4443C75.1689 19.0242 75.0481 19.733 75.0481 20.5706C75.0481 21.8593 75.322 22.8338 75.8696 23.4943C76.4334 24.1547 77.263 24.4849 78.3584 24.4849C79.1638 24.4849 79.8242 24.3319 80.3397 24.0258C80.8713 23.7198 81.2176 23.2849 81.3787 22.7211H84.109C83.8513 24.0258 83.207 25.0487 82.176 25.7897C81.1612 26.5307 79.8725 26.9012 78.31 26.9012Z" fill="#0F24F7"/>
    <path d="M90.2163 26.9012C88.9598 26.9012 87.9611 26.5629 87.2201 25.8863C86.4953 25.1937 86.1328 24.2916 86.1328 23.1802C86.1328 22.0848 86.5114 21.2149 87.2684 20.5706C88.0416 19.9102 89.137 19.5236 90.5545 19.4108L94.1306 19.1209V18.8551C94.1306 18.3074 94.0259 17.8725 93.8165 17.5503C93.6232 17.212 93.3413 16.9704 92.9708 16.8254C92.6003 16.6644 92.1654 16.5838 91.666 16.5838C90.7962 16.5838 90.1277 16.761 89.6605 17.1154C89.1934 17.4537 88.9598 17.9369 88.9598 18.5651H86.4469C86.4469 17.6953 86.6644 16.9462 87.0993 16.318C87.5503 15.6737 88.1786 15.1743 88.984 14.82C89.8055 14.4656 90.7478 14.2884 91.811 14.2884C92.8902 14.2884 93.8165 14.4817 94.5897 14.8683C95.3629 15.2388 95.9589 15.8026 96.3777 16.5596C96.7965 17.3006 97.0059 18.2269 97.0059 19.3383V26.5871H94.4205L94.2031 24.8232C93.9453 25.4353 93.446 25.9347 92.705 26.3213C91.9801 26.7079 91.1505 26.9012 90.2163 26.9012ZM91.1586 24.6782C92.0768 24.6782 92.8016 24.4205 93.3332 23.905C93.8809 23.3896 94.1547 22.6727 94.1547 21.7546V21.1263L91.666 21.3196C90.7478 21.4002 90.0955 21.5935 89.7089 21.8995C89.3223 22.1895 89.129 22.5761 89.129 23.0593C89.129 23.5909 89.3061 23.9936 89.6605 24.2675C90.0149 24.5413 90.5143 24.6782 91.1586 24.6782Z" fill="#0F24F7"/>
    <path d="M103.212 26.5871H100.264V14.6508H102.97L103.333 16.7771L102.995 16.4872C103.236 15.9073 103.679 15.3998 104.324 14.9649C104.968 14.5139 105.773 14.2884 106.74 14.2884C107.787 14.2884 108.641 14.5622 109.301 15.1099C109.978 15.6576 110.445 16.3825 110.702 17.2845H110.219C110.396 16.3825 110.847 15.6576 111.572 15.1099C112.313 14.5622 113.207 14.2884 114.254 14.2884C115.704 14.2884 116.816 14.6991 117.589 15.5207C118.362 16.3261 118.749 17.4134 118.749 18.7826V26.5871H115.825V19.5558C115.825 18.702 115.607 18.0577 115.172 17.6228C114.754 17.1718 114.19 16.9462 113.481 16.9462C113.03 16.9462 112.611 17.0509 112.225 17.2604C111.854 17.4698 111.556 17.7839 111.331 18.2027C111.105 18.6215 110.992 19.1611 110.992 19.8216V26.5871H108.045V19.5316C108.045 18.694 107.835 18.0577 107.416 17.6228C106.998 17.1879 106.442 16.9704 105.749 16.9704C105.282 16.9704 104.855 17.0751 104.469 17.2845C104.082 17.4778 103.776 17.7919 103.55 18.2269C103.325 18.6457 103.212 19.1772 103.212 19.8216V26.5871Z" fill="#0F24F7"/>
    <path d="M129.194 20.1357V8.92432H132.287V19.9424C132.287 21.2149 132.625 22.1895 133.301 22.866C133.978 23.5426 134.936 23.8809 136.177 23.8809C137.433 23.8809 138.4 23.5426 139.076 22.866C139.753 22.1734 140.091 21.1988 140.091 19.9424V8.92432H143.184V20.1357C143.184 21.5049 142.894 22.6969 142.314 23.7117C141.75 24.7104 140.945 25.4917 139.898 26.0555C138.851 26.6032 137.61 26.877 136.177 26.877C134.759 26.877 133.527 26.6032 132.48 26.0555C131.433 25.5078 130.619 24.7266 130.04 23.7117C129.476 22.6969 129.194 21.5049 129.194 20.1357Z" fill="#0F24F7"/>
    <path d="M151.676 17.7678L145.804 8.92432H149.477L151.627 12.1138C151.982 12.6292 152.312 13.1608 152.618 13.7085C152.94 14.2401 153.27 14.8038 153.609 15.3998L157.716 8.92432H161.316L155.542 17.7436L161.341 26.5871H157.692L155.711 23.6634C155.308 23.0674 154.946 22.4875 154.623 21.9237C154.301 21.3599 153.955 20.7639 153.585 20.1357L149.308 26.5871H145.683L151.676 17.7678Z" fill="#0F24F7"/>
    <path fill-rule="evenodd" clip-rule="evenodd" d="M5.05469 12.2192C5.05469 8.64472 7.95234 5.74707 11.5268 5.74707H40.0327C43.6071 5.74707 46.5048 8.64472 46.5048 12.2192V24.0702C46.5048 27.6447 43.6071 30.5423 40.0327 30.5423H11.5268C7.95234 30.5423 5.05469 27.6447 5.05469 24.0702V12.2192ZM11.5268 8.3359C9.38211 8.3359 7.64352 10.0745 7.64352 12.2192V24.0702C7.64352 26.2149 9.38211 27.9535 11.5268 27.9535H40.0327C42.1774 27.9535 43.9159 26.2149 43.9159 24.0702V12.2192C43.9159 10.0745 42.1773 8.3359 40.0327 8.3359H11.5268Z" fill="#0F24F7"/>
    <path d="M49.9545 7.04221C49.9545 9.67027 47.8241 11.8007 45.196 11.8007C42.568 11.8007 40.4375 9.67027 40.4375 7.04221C40.4375 4.41415 42.568 2.28369 45.196 2.28369C47.8241 2.28369 49.9545 4.41415 49.9545 7.04221Z" fill="white"/>
    <path fill-rule="evenodd" clip-rule="evenodd" d="M45.2092 3.57809C43.296 3.57809 41.7451 5.12902 41.7451 7.04219C41.7451 8.95537 43.296 10.5063 45.2092 10.5063C47.1224 10.5063 48.6733 8.95537 48.6733 7.04219C48.6733 5.12902 47.1224 3.57809 45.2092 3.57809ZM39.1562 7.04219C39.1562 3.69925 41.8662 0.989258 45.2092 0.989258C48.5521 0.989258 51.2621 3.69925 51.2621 7.04219C51.2621 10.3851 48.5521 13.0951 45.2092 13.0951C41.8662 13.0951 39.1562 10.3851 39.1562 7.04219Z" fill="#0F24F7"/>
    <path d="M11.1108 29.2483C11.1108 31.8763 8.98033 34.0068 6.35227 34.0068C3.72421 34.0068 1.59375 31.8763 1.59375 29.2483C1.59375 26.6202 3.72421 24.4897 6.35227 24.4897C8.98033 24.4897 11.1108 26.6202 11.1108 29.2483Z" fill="white"/>
    <path fill-rule="evenodd" clip-rule="evenodd" d="M6.342 25.7841C4.42883 25.7841 2.8779 27.3351 2.8779 29.2482C2.8779 31.1614 4.42883 32.7124 6.342 32.7124C8.25517 32.7124 9.8061 31.1614 9.8061 29.2482C9.8061 27.3351 8.25517 25.7841 6.342 25.7841ZM0.289062 29.2482C0.289062 25.9053 2.99905 23.1953 6.342 23.1953C9.68494 23.1953 12.3949 25.9053 12.3949 29.2482C12.3949 32.5912 9.68494 35.3012 6.342 35.3012C2.99905 35.3012 0.289062 32.5912 0.289062 29.2482Z" fill="#0F24F7"/>
</svg>
