<svg aria-hidden="true" width="24" height="24" viewBox="0 0 24 24" fill="none" xmlns="http://www.w3.org/2000/svg"  aria-label="Nouvelle fenêtre">
    <path d="M5.06799 21.2034C4.43828 21.2034 3.90168 20.9817 3.45819 20.5382C3.01471 20.0947 2.79297 19.5581 2.79297 18.9284V5.0719C2.79297 4.44218 3.01471 3.90558 3.45819 3.4621C3.90168 3.01862 4.43828 2.79688 5.06799 2.79688H10.8587C11.1779 2.79688 11.4473 2.90666 11.6669 3.12623C11.8865 3.34579 11.9962 3.61518 11.9962 3.9344C11.9962 4.2536 11.8865 4.52298 11.6669 4.74255C11.4473 4.96212 11.1779 5.0719 10.8587 5.0719H5.06799V18.9284H18.9245V13.1376C18.9245 12.8184 19.0343 12.5491 19.2538 12.3295C19.4734 12.1099 19.7428 12.0001 20.062 12.0001C20.3812 12.0001 20.6506 12.1099 20.8702 12.3295C21.0897 12.5491 21.1995 12.8184 21.1995 13.1376V18.9284C21.1995 19.5581 20.9778 20.0947 20.5343 20.5382C20.0908 20.9817 19.5542 21.2034 18.9245 21.2034H5.06799ZM18.9245 6.65723L10.6712 14.9105C10.46 15.1217 10.1968 15.2263 9.88157 15.2243C9.56635 15.2223 9.30313 15.1157 9.09189 14.9045C8.88066 14.6933 8.77504 14.429 8.77504 14.1118C8.77504 13.7946 8.88066 13.5304 9.09189 13.3192L17.3392 5.0719H15.1337C14.8145 5.0719 14.5452 4.96212 14.3256 4.74255C14.106 4.52298 13.9962 4.2536 13.9962 3.9344C13.9962 3.61518 14.106 3.34579 14.3256 3.12623C14.5452 2.90666 14.8145 2.79688 15.1337 2.79688H21.1995V8.86265C21.1995 9.18185 21.0897 9.45123 20.8702 9.6708C20.6506 9.89037 20.3812 10.0001 20.062 10.0001C19.7428 10.0001 19.4734 9.89037 19.2538 9.6708C19.0343 9.45123 18.9245 9.18185 18.9245 8.86265V6.65723Z" fill="currentColor"/>
</svg>
