<svg aria-hidden="true" xmlns="http://www.w3.org/2000/svg" width="24" height="24" viewBox="0 0 24 24" fill="none">
    <path d="M12.8243 19H18.4743V19.3C18.4743 19.5833 18.3785 19.8292 18.1868 20.0375C17.9952 20.2458 17.7577 20.3667 17.4743 20.4L4.72432 22C4.44099 22.0333 4.19515 21.9708 3.98682 21.8125C3.77849 21.6542 3.65765 21.4333 3.62432 21.15L2.02432 8.2C1.99099 7.91667 2.05349 7.67083 2.21182 7.4625C2.37015 7.25417 2.59099 7.13333 2.87432 7.1L5.02432 6.85V8.85L4.12432 8.95L5.47432 19.9L12.8243 19ZM14.5243 14C15.6577 14 16.6202 13.6083 17.4118 12.825C18.2035 12.0417 18.641 11.1 18.7243 10C17.591 10 16.6202 10.3917 15.8118 11.175C15.0035 11.9583 14.5743 12.9 14.5243 14ZM8.02432 17C7.74099 17 7.50349 16.9042 7.31182 16.7125C7.12015 16.5208 7.02432 16.2833 7.02432 16V3C7.02432 2.71667 7.12015 2.47917 7.31182 2.2875C7.50349 2.09583 7.74099 2 8.02432 2H21.0243C21.3077 2 21.5452 2.09583 21.7368 2.2875C21.9285 2.47917 22.0243 2.71667 22.0243 3V16C22.0243 16.2833 21.9285 16.5208 21.7368 16.7125C21.5452 16.9042 21.3077 17 21.0243 17H8.02432ZM14.5243 14C14.4743 12.9 14.0452 11.9583 13.2368 11.175C12.4285 10.3917 11.4577 10 10.3243 10C10.4077 11.1 10.8452 12.0417 11.6368 12.825C12.4285 13.6083 13.391 14 14.5243 14ZM14.5243 11C14.8077 11 15.0452 10.9042 15.2368 10.7125C15.4285 10.5208 15.5243 10.2833 15.5243 10V9.75L15.7743 9.85C16.0243 9.95 16.2785 9.975 16.5368 9.925C16.7952 9.875 16.991 9.73333 17.1243 9.5C17.2743 9.25 17.3243 8.98333 17.2743 8.7C17.2243 8.41667 17.0577 8.21667 16.7743 8.1L16.5243 8L16.7743 7.9C17.0577 7.78333 17.2202 7.57917 17.2618 7.2875C17.3035 6.99583 17.2577 6.73333 17.1243 6.5C16.9743 6.25 16.7743 6.10417 16.5243 6.0625C16.2743 6.02083 16.0243 6.05 15.7743 6.15L15.5243 6.25V6C15.5243 5.71667 15.4285 5.47917 15.2368 5.2875C15.0452 5.09583 14.8077 5 14.5243 5C14.241 5 14.0035 5.09583 13.8118 5.2875C13.6202 5.47917 13.5243 5.71667 13.5243 6V6.25L13.2743 6.15C13.0243 6.05 12.7743 6.02083 12.5243 6.0625C12.2743 6.10417 12.0743 6.25 11.9243 6.5C11.791 6.73333 11.7452 6.99583 11.7868 7.2875C11.8285 7.57917 11.991 7.78333 12.2743 7.9L12.5243 8L12.2743 8.1C11.991 8.21667 11.8243 8.41667 11.7743 8.7C11.7243 8.98333 11.7743 9.25 11.9243 9.5C12.0577 9.73333 12.2535 9.875 12.5118 9.925C12.7702 9.975 13.0243 9.95 13.2743 9.85L13.5243 9.75V10C13.5243 10.2833 13.6202 10.5208 13.8118 10.7125C14.0035 10.9042 14.241 11 14.5243 11ZM14.5243 9C14.241 9 14.0035 8.90417 13.8118 8.7125C13.6202 8.52083 13.5243 8.28333 13.5243 8C13.5243 7.71667 13.6202 7.47917 13.8118 7.2875C14.0035 7.09583 14.241 7 14.5243 7C14.8077 7 15.0452 7.09583 15.2368 7.2875C15.4285 7.47917 15.5243 7.71667 15.5243 8C15.5243 8.28333 15.4285 8.52083 15.2368 8.7125C15.0452 8.90417 14.8077 9 14.5243 9ZM9.02432 15H20.0243V4H9.02432V15Z" fill="currentColor"/>
</svg>
