<svg xmlns="http://www.w3.org/2000/svg" width="76" height="54" viewBox="0 0 76 54">
        <path d="M13.3484 25.8444L10.9802 26.6848C12.1284 25.7043 13.3484 25.0039 14.6402 24.5837C15.932 24.0234 17.5826 23.7432 19.5921 23.7432C23.4674 23.7432 26.6969 25.0039 29.2805 27.5253C32.0076 30.0467 33.3711 33.6187 33.3711 38.2412C33.3711 42.8638 31.864 46.6459 28.8499 49.5876C25.9792 52.5292 22.1756 54 17.4391 54C12.4155 54 8.25307 52.179 4.95184 48.537C1.65061 44.7549 0 39.7121 0 33.4086C0 24.4436 2.7271 16.8794 8.1813 10.716C13.6355 4.55254 20.6686 0.980549 29.2805 0V10.0856C24.6874 11.0662 20.8839 12.8872 17.8697 15.5486C14.8555 18.2101 13.3484 21.642 13.3484 25.8444ZM55.9773 25.8444L53.6091 26.6848C54.7573 25.7043 55.9773 25.0039 57.2691 24.5837C58.5609 24.0234 60.1398 23.7432 62.0057 23.7432C66.0246 23.7432 69.3258 25.0039 71.9093 27.5253C74.6364 30.0467 76 33.6187 76 38.2412C76 42.8638 74.4929 46.6459 71.4788 49.5876C68.6081 52.5292 64.8045 54 60.068 54C54.9009 54 50.6667 52.179 47.3654 48.537C44.2077 44.7549 42.6289 39.7121 42.6289 33.4086C42.6289 24.4436 45.356 16.8794 50.8102 10.716C56.2644 4.55254 63.2974 0.980549 71.9093 0V10.0856C67.1728 11.0662 63.2975 12.8872 60.2833 15.5486C57.4127 18.2101 55.9773 21.642 55.9773 25.8444Z" fill="currentColor"/>
</svg>
