<svg role="img" width="24" height="24" viewBox="0 0 24 24" fill="none" xmlns="http://www.w3.org/2000/svg">
<path d="M11.9963 15.9998C13.2463 15.9998 14.3088 15.5623 15.1838 14.6873C16.0588 13.8123 16.4963 12.7498 16.4963 11.4998C16.4963 10.2498 16.0588 9.18728 15.1838 8.31228C14.3088 7.43728 13.2463 6.99978 11.9963 6.99978C10.7463 6.99978 9.68381 7.43728 8.80881 8.31228C7.93381 9.18728 7.49631 10.2498 7.49631 11.4998C7.49631 12.7498 7.93381 13.8123 8.80881 14.6873C9.68381 15.5623 10.7463 15.9998 11.9963 15.9998ZM11.9974 14.0742C11.2825 14.0742 10.6746 13.824 10.1735 13.3237C9.6724 12.8233 9.42186 12.2157 9.42186 11.5008C9.42186 10.786 9.67205 10.178 10.1724 9.67695C10.6728 9.17587 11.2804 8.92533 11.9953 8.92533C12.7101 8.92533 13.318 9.17552 13.8191 9.6759C14.3202 10.1763 14.5708 10.7839 14.5708 11.4987C14.5708 12.2136 14.3206 12.8215 13.8202 13.3226C13.3198 13.8237 12.7122 14.0742 11.9974 14.0742ZM11.9963 19.1851C9.65174 19.1851 7.50817 18.5616 5.56561 17.3147C3.62302 16.0678 2.15011 14.3907 1.14686 12.2835C1.08969 12.1892 1.05157 12.0713 1.03251 11.9299C1.01344 11.7884 1.00391 11.6451 1.00391 11.4998C1.00391 11.3545 1.01344 11.2111 1.03251 11.0697C1.05156 10.9282 1.08967 10.8104 1.14686 10.7161C2.15011 8.60883 3.62302 6.93174 5.56561 5.68483C7.50817 4.43791 9.65174 3.81445 11.9963 3.81445C14.3409 3.81445 16.4844 4.43791 18.427 5.68483C20.3696 6.93174 21.8425 8.60883 22.8458 10.7161C22.9029 10.8104 22.9411 10.9282 22.9601 11.0697C22.9792 11.2111 22.9887 11.3545 22.9887 11.4998C22.9887 11.6451 22.9792 11.7884 22.9601 11.9299C22.9411 12.0713 22.9029 12.1892 22.8458 12.2835C21.8425 14.3907 20.3696 16.0678 18.427 17.3147C16.4844 18.5616 14.3409 19.1851 11.9963 19.1851ZM11.9968 16.9998C13.8758 16.9998 15.6008 16.5029 17.1719 15.5093C18.7429 14.5156 19.945 13.1791 20.7784 11.4998C19.945 9.82043 18.7427 8.48393 17.1713 7.49028C15.5999 6.49661 13.8748 5.99978 11.9958 5.99978C10.1168 5.99978 8.39177 6.49661 6.82076 7.49028C5.24974 8.48393 4.04756 9.82043 3.21423 11.4998C4.04756 13.1791 5.24992 14.5156 6.82131 15.5093C8.39267 16.5029 10.1178 16.9998 11.9968 16.9998Z" fill="currentColor"/>
</svg>
