<?xml version="1.0" standalone="no"?>
<!DOCTYPE svg PUBLIC "-//W3C//DTD SVG 20010904//EN"
 "http://www.w3.org/TR/2001/REC-SVG-20010904/DTD/svg10.dtd">
<svg version="1.0" xmlns="http://www.w3.org/2000/svg"
 width="215.000000pt" height="215.000000pt" viewBox="0 0 215.000000 215.000000"
 preserveAspectRatio="xMidYMid meet">
<metadata>
Created by potrace 1.14, written by Peter Selinger 2001-2017
</metadata>
<g transform="translate(0.000000,215.000000) scale(0.100000,-0.100000)"
fill="#000000" stroke="none">
<path d="M974 2049 c-3 -6 -17 -9 -29 -6 -18 3 -22 0 -20 -15 2 -10 0 -18 -6
-18 -5 0 -9 7 -9 15 0 18 -16 20 -26 4 -4 -8 -9 -7 -15 2 -5 8 -9 9 -9 3 0 -6
-11 -10 -25 -9 -25 3 -34 -8 -15 -20 6 -4 8 -10 5 -15 -3 -5 -1 -11 4 -15 6
-3 8 -12 4 -21 -7 -20 -16 -10 -19 22 -2 15 -8 32 -15 38 -9 8 -10 5 -5 -14
14 -53 15 -61 4 -54 -6 4 -8 3 -4 -4 6 -10 30 -9 83 2 11 2 29 -2 40 -10 17
-13 15 -14 -17 -12 -24 2 -34 -2 -32 -11 1 -8 -2 -10 -10 -5 -24 16 -78 12
-79 -5 -1 -9 -5 -5 -9 9 l-8 25 -7 -23 c-5 -14 -13 -21 -21 -18 -8 3 -14 0
-14 -7 -1 -7 -6 -2 -13 10 l-12 23 -14 -22 c-11 -18 -11 -20 4 -15 10 4 14 3
10 -4 -4 -6 -14 -8 -22 -5 -11 5 -13 2 -9 -9 4 -11 2 -14 -7 -8 -20 13 -46 13
-53 1 -4 -6 -3 -8 4 -4 6 3 14 1 18 -6 4 -7 4 -10 -1 -6 -4 4 -16 3 -27 -3
-17 -9 -18 -8 -9 9 8 15 7 23 -3 31 -10 9 -15 8 -20 -4 -3 -9 -11 -13 -16 -10
-6 4 -9 1 -8 -7 2 -7 -5 -12 -14 -12 -14 1 -15 -2 -8 -16 7 -13 4 -22 -11 -36
-21 -19 -53 -29 -43 -13 3 5 10 6 16 3 7 -5 8 -2 3 6 -6 9 -4 11 5 5 9 -6 11
-4 6 4 -10 16 -47 -16 -44 -37 2 -8 -4 -16 -13 -17 -20 -3 -74 -53 -74 -68 0
-7 -9 -11 -20 -9 -17 2 -17 1 -5 -7 8 -6 12 -11 8 -12 -5 -1 -12 -2 -16 -3
-29 -4 -111 -118 -106 -149 1 -9 -2 -17 -7 -17 -5 0 -9 -7 -9 -15 0 -8 5 -15
11 -15 5 0 7 5 4 10 -3 6 1 13 10 16 13 6 14 8 3 15 -10 7 -11 9 0 9 7 0 11 4
8 8 -2 4 0 14 6 22 8 12 9 12 4 -2 -6 -20 10 -34 17 -16 4 9 6 9 6 1 1 -6 -10
-20 -22 -30 -13 -10 -23 -26 -21 -36 1 -10 -2 -14 -9 -10 -6 4 -8 0 -4 -10 3
-10 3 -17 -1 -17 -4 0 -8 -11 -8 -25 -1 -14 2 -22 8 -19 6 4 3 -5 -7 -19 -11
-17 -13 -27 -5 -32 8 -5 8 -11 -1 -21 -6 -8 -8 -14 -4 -14 4 0 3 -6 -4 -13 -8
-10 -7 -17 2 -27 7 -8 8 -11 1 -7 -7 4 -18 -1 -25 -10 -12 -15 -12 -16 6 -9
17 6 16 4 -5 -16 -13 -13 -28 -22 -32 -21 -4 2 -10 -7 -13 -19 -5 -14 -9 -17
-15 -8 -5 8 -10 9 -14 2 -4 -6 2 -16 13 -21 16 -9 21 -7 26 8 6 19 45 26 45 8
0 -5 -7 -7 -15 -3 -9 3 -19 -3 -25 -14 -11 -20 -3 -26 24 -21 5 1 4 -4 -2 -12
-7 -8 -8 -18 -4 -22 4 -5 1 -5 -6 -1 -7 4 -10 12 -6 17 3 6 -2 9 -12 7 -11 -2
-18 2 -17 10 2 6 -2 12 -7 12 -14 0 -12 -23 2 -39 11 -11 10 -12 -1 -6 -11 6
-13 4 -8 -9 4 -10 3 -15 -3 -11 -13 8 -13 -1 1 -27 8 -16 8 -19 -1 -13 -16 10
-2 -37 14 -47 8 -5 7 -8 -2 -8 -7 0 -10 -4 -7 -10 3 -5 3 -10 -2 -11 -4 0 -18
-2 -30 -3 -12 -1 -20 1 -17 6 4 5 12 7 19 4 7 -2 16 2 19 10 5 12 1 14 -17 8
-12 -4 -27 -14 -33 -22 -9 -13 -12 -13 -17 2 -4 9 -2 16 3 16 6 0 10 5 10 11
0 5 -5 7 -10 4 -14 -9 -7 30 9 49 8 9 16 14 19 11 3 -2 0 -11 -6 -18 -14 -17
9 -54 26 -43 17 10 15 26 -2 20 -8 -3 -17 -1 -21 5 -3 6 0 9 8 5 11 -4 15 2
14 23 -1 15 -6 32 -12 36 -6 5 -2 6 9 3 14 -5 17 -2 12 10 -3 8 -1 25 5 36 9
16 8 19 -2 13 -7 -5 -10 -4 -6 2 4 6 -1 19 -9 29 -9 10 -13 13 -9 6 3 -7 8
-25 11 -40 4 -26 3 -26 -11 -8 -17 23 -20 14 -5 -15 8 -14 7 -19 -1 -19 -6 0
-9 -6 -6 -14 7 -18 -18 -42 -28 -26 -3 5 -1 10 6 10 8 0 8 4 -1 15 -7 9 -8 15
-2 15 5 0 9 11 8 24 0 13 -5 22 -9 19 -5 -3 -6 -11 -3 -19 3 -8 2 -14 -3 -14
-10 0 -8 -141 3 -158 4 -7 11 -10 15 -7 5 2 11 -9 15 -26 3 -19 10 -28 17 -23
8 4 7 9 -2 16 -10 7 -8 8 7 3 16 -4 21 -1 20 9 0 8 4 15 9 15 6 1 10 -9 10
-22 -1 -16 -6 -21 -20 -19 -16 3 -17 2 -6 -12 7 -9 17 -13 22 -10 5 3 9 0 9
-5 0 -6 -4 -11 -9 -11 -11 0 -9 -63 2 -71 5 -3 -1 -9 -12 -12 -18 -4 -19 -2
-11 13 7 13 6 27 -2 44 -12 29 -28 34 -28 11 0 -8 5 -15 10 -15 6 0 10 -5 10
-11 0 -5 -4 -7 -10 -4 -5 3 -10 2 -10 -4 0 -5 6 -12 13 -14 9 -4 9 -6 -1 -6
-7 -1 -10 -6 -6 -13 4 -6 3 -8 -4 -4 -10 6 -28 107 -24 132 1 6 -4 11 -11 11
-7 0 -14 -9 -14 -19 -1 -10 2 -18 8 -18 5 0 9 -5 9 -11 0 -5 -5 -7 -11 -3 -8
5 -8 1 0 -13 6 -11 7 -23 4 -27 -3 -3 -1 -6 5 -6 7 0 12 -7 12 -16 0 -9 -5
-13 -12 -9 -7 4 -5 0 6 -9 10 -8 16 -22 13 -31 -4 -10 -1 -15 11 -15 15 0 15
-2 2 -10 -13 -8 -13 -10 1 -10 9 0 24 -9 34 -20 10 -11 13 -20 8 -20 -6 0 -13
7 -17 15 -3 8 -11 15 -18 14 -10 0 -10 -2 0 -6 10 -4 10 -8 1 -19 -10 -12 -9
-13 5 -8 12 5 15 2 10 -12 -5 -16 -4 -16 5 -4 9 13 11 13 11 -2 0 -10 5 -18
10 -18 6 0 8 -11 6 -24 -2 -14 0 -27 5 -30 5 -2 4 -3 -3 -2 -7 2 -13 13 -13
27 0 16 -7 25 -20 28 -19 3 -19 3 -2 -16 9 -11 14 -23 10 -26 -3 -4 0 -15 8
-24 9 -10 20 -30 27 -45 6 -16 16 -28 22 -28 6 0 9 -4 6 -9 -3 -4 6 -19 19
-31 14 -13 25 -18 25 -12 0 7 -5 12 -11 12 -5 0 -7 5 -3 11 10 16 25 -12 18
-33 -8 -26 11 -22 24 5 10 20 11 20 9 2 -1 -11 3 -19 10 -18 8 2 10 -4 6 -14
-4 -10 -2 -14 5 -9 7 4 10 -1 7 -15 -5 -24 35 -69 60 -69 9 0 14 -4 11 -9 -3
-5 2 -15 11 -22 10 -8 14 -9 10 -2 -4 6 -3 15 3 18 6 4 10 3 9 -2 -4 -23 2
-32 18 -26 11 4 14 3 9 -5 -5 -8 0 -12 13 -12 12 0 21 -4 21 -9 0 -5 9 -11 19
-14 14 -3 18 0 15 12 -3 9 1 6 7 -7 13 -24 29 -28 46 -11 8 8 11 6 10 -7 -2
-19 15 -23 46 -9 12 5 22 2 30 -8 14 -18 46 -25 65 -14 6 5 12 4 12 -1 0 -11
61 -10 79 2 10 7 12 6 6 -4 -6 -10 -4 -12 8 -7 9 3 36 -2 59 -13 32 -14 46
-16 56 -8 10 9 12 8 10 -2 -2 -8 10 -16 30 -20 21 -5 32 -4 32 4 0 6 4 4 10
-4 5 -8 26 -16 47 -17 131 -11 129 -11 124 20 -1 5 3 6 9 2 6 -3 8 -10 5 -15
-3 -4 2 -10 10 -14 8 -3 15 -2 15 3 0 4 15 7 34 6 26 -1 33 2 28 13 -4 11 -2
13 9 6 20 -12 39 -14 39 -3 0 6 4 8 9 5 15 -9 61 18 56 33 -4 10 -2 11 7 4 15
-10 23 -10 56 1 12 4 20 12 17 17 -3 5 1 6 10 3 13 -5 13 -9 3 -23 -12 -15
-11 -15 6 -1 11 8 20 13 20 11 2 -7 46 10 46 19 0 4 -7 10 -14 13 -10 4 -13 1
-10 -7 3 -7 -1 -16 -10 -19 -8 -3 -17 1 -20 9 -3 8 -2 13 3 10 5 -3 11 1 15 9
3 8 12 12 21 9 10 -4 14 -1 12 7 -2 8 -2 11 0 7 8 -14 23 -8 17 6 -8 20 12 29
36 16 23 -12 27 -2 5 14 -11 8 -12 15 -4 26 9 12 10 12 5 -4 -5 -14 -2 -17 9
-12 9 3 13 2 10 -4 -3 -6 -2 -10 4 -10 6 0 8 -7 5 -15 -7 -16 -34 -16 -46 0
-4 5 -10 6 -14 2 -4 -4 1 -14 12 -23 10 -8 14 -13 7 -10 -6 4 -14 2 -18 -4 -4
-6 -11 -8 -16 -5 -5 4 -6 -2 -2 -11 4 -11 8 -13 11 -6 2 7 7 10 12 7 4 -2 20
6 36 20 15 13 31 22 35 20 16 -10 2 42 -16 59 -20 18 -19 18 8 2 15 -9 32 -14
37 -11 5 3 12 0 16 -6 4 -8 3 -9 -4 -5 -7 4 -12 2 -12 -4 0 -6 -4 -8 -10 -5
-6 3 -7 -1 -3 -10 5 -15 8 -14 26 4 17 17 18 22 7 36 -7 8 -10 18 -7 22 4 3 2
12 -5 20 -8 11 -7 12 6 7 10 -4 14 -13 11 -24 -3 -9 1 -22 8 -29 11 -9 18 -4
32 23 11 19 22 33 27 30 4 -3 5 2 2 11 -5 11 -10 13 -19 5 -9 -7 -16 -5 -26 7
-12 16 -12 17 2 5 22 -17 45 7 26 28 -10 12 -9 12 5 2 10 -8 19 -9 22 -3 3 5
0 12 -6 15 -7 3 -2 3 12 -1 22 -5 23 -4 11 11 -7 9 -9 16 -3 16 17 0 22 -29 6
-38 -9 -5 -16 -13 -16 -18 0 -5 -5 -7 -12 -6 -6 2 -7 0 -3 -4 11 -11 38 -14
32 -4 -3 5 2 15 10 23 18 19 19 38 3 57 -11 12 -10 12 4 2 10 -8 19 -9 22 -3
3 5 1 11 -5 13 -6 2 2 9 17 16 27 11 27 11 10 -3 -17 -13 -18 -15 -3 -15 15 0
22 11 18 32 0 5 6 8 16 8 9 0 13 3 10 6 -3 4 3 18 13 32 15 18 17 28 9 38 -12
15 -4 34 16 34 17 0 27 27 13 36 -7 4 -7 9 0 13 12 7 111 196 119 226 2 11 5
26 5 33 1 6 5 12 10 12 5 0 7 4 4 9 -4 5 0 12 6 14 10 4 10 6 0 6 -11 1 -10 4
1 16 9 8 20 38 27 67 10 47 9 54 -7 66 -16 13 -16 13 7 8 l25 -7 -25 22 c-16
15 -19 20 -7 16 10 -4 18 -1 19 6 4 34 3 43 -7 49 -6 5 -6 8 3 8 6 0 12 9 12
21 0 11 -4 17 -10 14 -5 -3 -10 -1 -10 5 0 6 -5 8 -12 4 -7 -4 -8 -3 -4 4 4 6
13 9 21 5 8 -3 15 0 15 6 0 6 -6 11 -12 11 -9 0 -10 3 -2 8 6 4 10 15 8 25 -3
20 -63 79 -73 72 -4 -2 -13 1 -21 6 -13 9 -13 10 0 6 8 -2 28 2 44 10 15 8 25
10 22 4 -4 -6 -2 -11 3 -11 16 0 13 20 -4 26 -8 4 -23 0 -33 -7 -15 -13 -16
-12 -3 4 12 15 9 21 -11 18 -4 0 -4 7 -1 16 4 9 -1 21 -12 29 -18 13 -18 14 4
14 12 0 19 -4 16 -10 -3 -5 -1 -10 4 -10 6 0 10 -3 10 -7 -4 -22 3 -33 19 -33
15 1 15 2 -3 16 -11 8 -19 17 -17 19 1 3 2 15 2 26 0 18 -5 21 -29 17 -20 -3
-27 0 -24 8 2 6 14 10 26 7 13 -3 18 -1 12 4 -5 4 -11 14 -13 21 -5 25 -34 62
-48 62 -8 0 -14 5 -14 11 0 5 6 7 13 3 6 -4 3 2 -7 14 -20 23 -32 30 -21 12 3
-5 1 -10 -5 -10 -6 0 -10 8 -8 19 3 16 -37 74 -83 121 -8 9 -18 24 -22 33 -3
9 -14 17 -22 17 -9 0 -13 5 -10 10 6 9 -7 14 -27 11 -4 0 -4 7 -1 16 4 10 2
14 -5 9 -6 -3 -13 -2 -17 4 -3 5 -17 10 -31 10 -14 0 -22 4 -19 10 3 6 -3 10
-15 10 -12 0 -18 5 -15 10 3 6 -3 10 -14 10 -12 0 -21 6 -21 14 0 9 -7 13 -20
11 -11 -2 -20 1 -20 6 0 6 -4 8 -9 5 -4 -3 -16 1 -27 8 -19 14 -48 11 -39 -5
9 -14 -34 -1 -51 15 -17 17 -28 21 -20 7 3 -5 -1 -12 -10 -15 -24 -9 -31 -7
-14 4 17 11 24 10 -97 13 -67 2 -73 1 -74 -18 -1 -15 -2 -16 -6 -3 -5 21 -33
32 -33 14 0 -8 3 -16 8 -19 4 -2 2 -2 -5 -1 -6 2 -14 -2 -17 -9 -3 -8 -5 -7
-5 2 -1 11 -5 10 -17 -5 -14 -18 -15 -18 -4 4 6 12 15 20 21 17 5 -4 9 -1 9 4
0 15 -12 14 -38 -5 -12 -8 -20 -20 -17 -25 9 -14 -46 -32 -59 -19 -8 8 -6 9 8
4 14 -5 17 -4 11 5 -6 10 -2 11 15 6 16 -5 20 -4 15 5 -4 7 -2 16 5 20 9 6 10
12 1 26 -6 11 -11 13 -11 6 0 -7 -4 -11 -9 -7 -5 3 -13 0 -17 -6 -4 -8 -3 -9
4 -5 7 4 12 2 12 -3 0 -6 -7 -11 -15 -11 -8 0 -15 -6 -15 -12 0 -8 -3 -9 -8
-3 -12 17 -43 14 -40 -4 2 -12 -6 -16 -37 -17 -22 0 -49 -5 -60 -11 -16 -8
-24 -7 -39 8 -18 18 -18 18 0 18 11 1 26 1 34 2 8 0 35 -2 60 -5 24 -4 41 -3
37 1 -9 8 -34 14 -59 14 -9 0 -15 7 -14 17 2 9 9 17 17 17 8 0 20 4 27 9 8 5
18 3 25 -4 9 -10 9 -11 -2 -5 -9 5 -12 4 -8 -2 4 -6 -6 -9 -26 -7 -29 3 -30 2
-9 -8 16 -8 29 -8 48 1 21 9 30 9 42 -1 13 -11 15 -10 9 5 -4 10 -7 20 -7 22
0 2 -10 1 -22 -2 -21 -4 -21 -3 -6 9 15 13 15 15 -3 26 -11 7 -19 8 -19 2 0
-5 5 -10 11 -10 5 0 8 -4 5 -8 -8 -14 -49 -7 -55 9 -7 18 -28 22 -37 8z m32
-21 c10 -12 13 -18 6 -14 -9 5 -25 -3 -45 -24 l-31 -32 -23 29 c-17 20 -22 22
-17 8 l7 -20 -23 20 c-14 12 -20 14 -15 5 8 -13 7 -13 -11 0 -19 14 -19 14 -1
-7 11 -12 27 -20 38 -18 10 2 19 0 19 -6 0 -5 -3 -9 -7 -10 -37 -5 -62 -5 -61
0 0 3 0 8 -2 11 -1 3 -3 15 -5 26 -4 19 0 21 28 20 17 -1 38 -5 45 -10 7 -4
16 -5 19 -2 3 3 12 1 20 -5 18 -16 16 -4 -3 15 -14 15 -14 16 5 16 11 0 23 5
26 10 8 13 9 13 31 -12z m84 -98 c0 -5 -4 -10 -10 -10 -5 0 -10 5 -10 10 0 6
5 10 10 10 6 0 10 -4 10 -10z m-520 -103 c0 -7 -4 -6 -10 3 -6 10 -10 11 -10
3 0 -7 -5 -13 -11 -13 -8 0 -8 5 1 15 13 16 30 11 30 -8z m1260 -42 c0 -5 -5
-3 -10 5 -5 8 -10 20 -10 25 0 6 5 3 10 -5 5 -8 10 -19 10 -25z m33 -30 c-3
-9 -8 -14 -10 -11 -3 3 -2 9 2 15 9 16 15 13 8 -4z m47 -45 c0 -5 -2 -10 -4
-10 -3 0 -8 5 -11 10 -3 6 -1 10 4 10 6 0 11 -4 11 -10z m-1506 -18 c2 -4 -5
-9 -17 -9 -17 -2 -19 0 -7 7 18 12 18 12 24 2z m1481 -10 c-3 -3 -11 0 -18 7
-9 10 -8 11 6 5 10 -3 15 -9 12 -12z m65 3 c0 -2 -9 -3 -19 -2 -11 0 -18 5
-15 9 4 6 34 0 34 -7z m25 -45 c-3 -5 -12 -10 -18 -10 -7 0 -6 4 3 10 19 12
23 12 15 0z m-1605 -4 c0 -3 -4 -8 -10 -11 -5 -3 -10 -1 -10 4 0 6 5 11 10 11
6 0 10 -2 10 -4z m1585 -46 l20 -25 -22 19 c-13 11 -23 24 -23 29 0 6 1 8 3 6
1 -2 11 -15 22 -29z m42 17 c10 0 10 -3 0 -16 -10 -12 -9 -14 5 -8 12 4 15 2
11 -9 -6 -16 -23 -19 -23 -4 0 6 1 13 3 16 1 3 -9 12 -23 21 -16 9 -18 12 -5
7 11 -3 26 -7 32 -7z m-1676 -14 c13 -16 12 -17 -3 -5 -14 11 -17 10 -23 -7
-3 -12 -11 -21 -17 -21 -6 0 -6 -6 2 -15 7 -9 8 -15 2 -15 -20 0 -20 28 1 54
25 31 21 30 38 9z m1623 -32 c-2 -3 -12 3 -22 13 -16 17 -16 18 5 5 12 -7 20
-15 17 -18z m26 -16 c0 -8 -4 -15 -10 -15 -5 0 -7 7 -4 15 4 8 8 15 10 15 2 0
4 -7 4 -15z m40 -49 c0 -2 -7 -6 -15 -10 -8 -3 -15 -1 -15 4 0 6 7 10 15 10 8
0 15 -2 15 -4z m17 -33 c0 -9 -4 -10 -10 -4 -5 5 -17 7 -26 4 -12 -4 -13 -2
-3 4 19 14 39 12 39 -4z m-59 -98 c-3 -3 -9 2 -12 12 -6 14 -5 15 5 6 7 -7 10
-15 7 -18z m68 3 c5 -7 3 -8 -6 -3 -10 6 -12 4 -7 -8 3 -10 2 -17 -3 -17 -11
0 -13 23 -3 33 9 9 11 9 19 -5z m50 -20 c3 -4 -1 -5 -10 -4 -8 1 -18 5 -22 8
-3 4 1 5 10 4 8 -1 18 -5 22 -8z m-66 -24 c0 -2 -7 -4 -15 -4 -8 0 -15 4 -15
10 0 5 7 7 15 4 8 -4 15 -8 15 -10z m47 -16 c0 -13 -1 -18 -4 -11 -2 7 -11 9
-19 6 -8 -3 -14 0 -14 7 0 6 4 9 9 5 5 -3 12 -1 16 5 9 14 11 13 12 -12z m53
8 c0 -3 -4 -8 -10 -11 -5 -3 -10 -1 -10 4 0 6 5 11 10 11 6 0 10 -2 10 -4z
m-95 -26 c3 -5 2 -10 -4 -10 -5 0 -13 5 -16 10 -3 6 -2 10 4 10 5 0 13 -4 16
-10z m-60 -9 c3 -5 2 -12 -3 -15 -5 -3 -9 1 -9 9 0 17 3 19 12 6z m125 -7 c0
-8 -19 -13 -24 -6 -3 5 1 9 9 9 8 0 15 -2 15 -3z m-50 -51 c0 -2 -8 1 -18 6
-13 7 -23 6 -32 -2 -12 -10 -12 -9 -2 4 6 9 8 19 4 24 -4 4 5 0 21 -10 15 -9
27 -19 27 -22z m75 -1 c-3 -3 -11 0 -18 7 -9 10 -8 11 6 5 10 -3 15 -9 12 -12z
m-91 -11 c3 -5 -2 -15 -12 -22 -15 -13 -16 -12 -4 3 10 13 10 17 0 21 -9 4 -9
6 -1 6 6 1 14 -3 17 -8z m-38 -27 c1 -9 0 -13 -4 -10 -3 4 -7 14 -8 22 -1 9 0
13 4 10 3 -4 7 -14 8 -22z m132 -19 c-3 -3 -9 2 -12 12 -6 14 -5 15 5 6 7 -7
10 -15 7 -18z m-24 7 c3 -5 -1 -9 -9 -9 -8 0 -12 4 -9 9 3 4 7 8 9 8 2 0 6 -4
9 -8z m-107 -27 c0 -8 -4 -12 -9 -9 -5 3 -6 10 -3 15 9 13 12 11 12 -6z m46
-28 c7 3 8 2 4 -2 -14 -16 -36 -14 -29 3 4 10 7 12 10 4 2 -7 9 -9 15 -5z m72
-26 c3 -5 0 -13 -6 -17 -7 -4 -9 -3 -5 4 3 5 0 13 -6 15 -9 4 -10 6 -1 6 6 1
14 -3 18 -8z m-25 -15 c0 -2 -8 -10 -17 -17 -16 -13 -17 -12 -4 4 13 16 21 21
21 13z m-1919 -23 c12 -16 12 -17 -2 -6 -9 7 -20 9 -24 5 -5 -4 -5 -1 -1 6 9
16 11 15 27 -5z m1864 8 c3 -5 2 -12 -3 -15 -5 -3 -9 1 -9 9 0 17 3 19 12 6z
m-1878 -28 c-4 -3 -2 -12 5 -20 6 -7 8 -16 4 -20 -3 -3 -6 -1 -6 6 0 7 -4 10
-8 7 -4 -2 -9 4 -9 15 -1 10 3 19 9 19 6 0 8 -3 5 -7z m1879 -28 c-1 -8 -5
-17 -8 -21 -5 -4 -4 16 1 34 3 9 9 -1 7 -13z m64 5 c0 -5 -5 -10 -11 -10 -5 0
-7 5 -4 10 3 6 8 10 11 10 2 0 4 -4 4 -10z m-1940 -80 c0 -5 -2 -10 -4 -10 -3
0 -8 5 -11 10 -3 6 -1 10 4 10 6 0 11 -4 11 -10z m20 -154 c0 -3 -4 -8 -10
-11 -5 -3 -10 -1 -10 4 0 6 5 11 10 11 6 0 10 -2 10 -4z m-36 -45 c4 -5 -3 -7
-14 -4 -23 6 -26 13 -6 13 8 0 17 -4 20 -9z m24 -14 c-1 -2 2 -10 9 -18 10
-12 8 -15 -10 -16 -12 -1 -17 1 -11 5 6 4 10 15 8 25 -1 11 0 17 3 14 2 -3 3
-7 1 -10z m-43 -7 c3 -5 2 -10 -4 -10 -5 0 -13 5 -16 10 -3 6 -2 10 4 10 5 0
13 -4 16 -10z m75 -104 c0 -2 -8 -10 -17 -17 -16 -13 -17 -12 -4 4 13 16 21
21 21 13z m-26 -51 c-10 -8 -23 -15 -28 -15 -6 0 -1 7 10 15 10 8 23 15 28 15
6 0 1 -7 -10 -15z m44 -10 c-3 -3 -9 2 -12 12 -6 14 -5 15 5 6 7 -7 10 -15 7
-18z m1692 5 c-13 -25 -30 -26 -30 -2 0 13 2 14 9 4 7 -11 9 -11 14 2 4 9 9
16 12 16 3 0 1 -9 -5 -20z m-1690 -44 c0 -6 -5 -3 -11 7 -6 9 -15 14 -21 11
-7 -4 -8 -2 -4 5 9 14 36 -3 36 -23z m1656 12 c4 -7 3 -8 -4 -4 -7 4 -12 2
-12 -5 0 -7 -3 -10 -6 -6 -6 5 3 27 11 27 2 0 7 -5 11 -12z m-1676 -43 c0 -8
-4 -15 -10 -15 -5 0 -7 7 -4 15 4 8 8 15 10 15 2 0 4 -7 4 -15z m100 -1 c0 -8
-19 -13 -24 -6 -3 5 1 9 9 9 8 0 15 -2 15 -3z m15 -123 c-4 -21 19 -35 38 -25
9 5 9 4 1 -5 -16 -18 -49 1 -51 28 -1 12 2 21 7 21 5 0 7 -9 5 -19z m1422 -16
c1 0 -6 -9 -14 -20 -14 -18 -15 -18 -9 -1 3 10 1 26 -6 35 -12 14 -11 15 7 1
11 -8 21 -14 22 -15z m-1279 -30 c-3 -3 -9 2 -12 12 -6 14 -5 15 5 6 7 -7 10
-15 7 -18z m1212 10 c0 -8 -4 -15 -10 -15 -5 0 -7 7 -4 15 4 8 8 15 10 15 2 0
4 -7 4 -15z m-1276 -3 c3 -5 -1 -9 -9 -9 -8 0 -12 4 -9 9 3 4 7 8 9 8 2 0 6
-4 9 -8z m73 -58 c-3 -3 -12 -4 -19 -1 -8 3 -5 6 6 6 11 1 17 -2 13 -5z m1030
-26 c-3 -8 -6 -5 -6 6 -1 11 2 17 5 13 3 -3 4 -12 1 -19z m-920 -8 c-1 -11 -7
-22 -14 -24 -9 -4 -10 0 -1 19 14 30 17 31 15 5z m901 -1 c-2 -6 -8 -11 -13
-11 -18 0 -35 -20 -28 -32 4 -6 -2 -4 -13 4 -29 22 -30 24 -12 17 9 -3 22 1
28 8 7 8 16 12 21 9 5 -3 9 0 9 5 0 6 3 11 6 11 3 0 4 -5 2 -11z m-797 -14 c5
4 6 -1 3 -9 -7 -18 -24 -22 -24 -6 0 6 -6 10 -14 10 -8 0 -18 4 -21 10 -4 7 3
7 20 0 15 -6 31 -8 36 -5z m37 -20 c-3 -3 -9 2 -12 12 -6 14 -5 15 5 6 7 -7
10 -15 7 -18z m667 5 c-3 -5 -12 -10 -18 -10 -7 0 -6 4 3 10 19 12 23 12 15 0z
m-62 -35 c-7 -21 -12 -19 -10 4 0 11 5 18 9 15 4 -3 5 -11 1 -19z m37 4 c0 -6
-4 -7 -10 -4 -5 3 -10 11 -10 16 0 6 5 7 10 4 6 -3 10 -11 10 -16z m-126 -18
c14 -15 15 -21 4 -27 -7 -4 -10 -3 -5 1 4 5 0 17 -10 27 -9 10 -14 18 -11 18
3 0 13 -9 22 -19z m-174 5 c0 -2 -8 -10 -17 -17 -16 -13 -17 -12 -4 4 13 16
21 21 21 13z m64 -14 c3 -5 -1 -9 -9 -9 -8 0 -12 4 -9 9 3 4 7 8 9 8 2 0 6 -4
9 -8z m90 0 c3 -5 -1 -9 -9 -9 -8 0 -12 4 -9 9 3 4 7 8 9 8 2 0 6 -4 9 -8z"/>
<path d="M971 2017 c-13 -21 -12 -21 5 -5 10 10 16 20 13 22 -3 3 -11 -5 -18
-17z"/>
<path d="M926 1991 c-4 -5 -2 -12 3 -15 5 -4 12 -2 15 3 4 5 2 12 -3 15 -5 4
-12 2 -15 -3z"/>
<path d="M840 1986 c0 -2 8 -10 18 -17 15 -13 16 -12 3 4 -13 16 -21 21 -21
13z"/>
<path d="M1120 2039 c0 -5 -4 -7 -10 -4 -6 4 -7 -1 -3 -11 4 -11 8 -13 11 -6
2 7 8 10 13 7 5 -4 6 1 3 9 -7 18 -14 21 -14 5z"/>
<path d="M1178 2033 c7 -3 16 -2 19 1 4 3 -2 6 -13 5 -11 0 -14 -3 -6 -6z"/>
<path d="M1175 2010 c3 -5 8 -10 11 -10 2 0 4 5 4 10 0 6 -5 10 -11 10 -5 0
-7 -4 -4 -10z"/>
<path d="M750 1995 c-7 -8 -16 -12 -21 -9 -17 10 -30 -6 -19 -25 12 -24 3 -32
-25 -21 -19 7 -24 5 -28 -11 -3 -10 -11 -19 -19 -18 -10 0 -10 2 0 6 6 2 12 9
12 15 0 6 -6 6 -15 -2 -8 -7 -12 -17 -9 -22 3 -5 -2 -8 -12 -6 -11 2 -19 -3
-19 -11 0 -8 10 -15 23 -16 28 -2 65 23 58 40 -6 17 23 13 34 -4 6 -11 9 -11
13 0 5 12 6 12 6 0 1 -8 8 -4 20 10 17 21 21 22 37 9 17 -14 18 -13 6 2 -9 11
-10 18 -2 23 6 3 8 11 5 16 -9 13 -25 11 -22 -3 1 -7 -6 -12 -16 -11 -11 0
-16 -4 -14 -11 3 -7 -1 -13 -8 -13 -7 0 -11 7 -8 15 3 8 0 18 -8 23 -10 6 -8
8 9 6 12 0 22 -5 22 -9 0 -4 5 -8 12 -8 6 0 8 3 5 7 -4 3 -2 12 4 19 6 7 6 14
1 18 -6 3 -15 -1 -22 -9z"/>
<path d="M680 1956 c0 -2 7 -7 16 -10 8 -3 12 -2 9 4 -6 10 -25 14 -25 6z"/>
<path d="M496 1817 c3 -10 9 -15 12 -12 3 3 0 11 -7 18 -10 9 -11 8 -5 -6z"/>
<path d="M196 1425 c3 -8 0 -17 -8 -20 -8 -3 -15 -15 -15 -27 -1 -12 -8 -25
-15 -31 -9 -6 -8 -7 5 -3 9 3 17 2 17 -3 0 -5 -8 -11 -18 -13 -13 -4 -19 -15
-20 -37 0 -17 4 -29 9 -25 5 3 7 9 4 14 -7 11 22 7 32 -5 4 -4 2 -5 -6 0 -10
6 -12 4 -6 -5 5 -8 4 -11 -3 -6 -7 4 -9 -1 -7 -15 4 -21 3 -21 -15 -4 -10 9
-24 14 -30 10 -6 -4 -18 -1 -26 6 -8 6 -17 9 -21 5 -3 -3 0 -6 7 -6 11 0 10
-3 -2 -12 -21 -18 -31 -48 -14 -48 20 0 27 12 15 27 -9 10 -8 13 2 14 8 1 21
2 29 3 20 2 41 -14 34 -25 -3 -5 -1 -16 4 -25 8 -15 10 -15 15 0 4 10 3 15 -3
11 -6 -3 -10 -2 -10 2 0 5 9 14 20 21 12 7 18 17 15 22 -3 5 -1 11 4 15 6 3 8
12 4 20 -3 8 0 15 7 15 10 0 10 3 0 15 -10 12 -10 18 1 32 12 15 12 16 -3 10
-13 -4 -16 -1 -13 15 3 11 7 23 11 27 4 3 4 -2 1 -12 -4 -10 -3 -16 2 -13 11
7 12 66 1 66 -5 0 -7 -7 -4 -15z m-26 -115 c0 -5 -4 -10 -10 -10 -5 0 -10 5
-10 10 0 6 5 10 10 10 6 0 10 -4 10 -10z"/>
<path d="M2070 1390 c0 -5 5 -10 11 -10 7 0 18 -8 25 -17 7 -10 14 -13 14 -6
0 14 -27 43 -41 43 -5 0 -9 -4 -9 -10z"/>
<path d="M124 1372 c4 -3 14 -7 22 -8 9 -1 13 0 10 4 -4 3 -14 7 -22 8 -9 1
-13 0 -10 -4z"/>
<path d="M112 1343 c1 -4 -4 -19 -11 -31 -7 -13 -11 -25 -9 -27 2 -2 11 9 20
25 10 18 13 32 7 36 -5 3 -8 2 -7 -3z"/>
<path d="M115 1291 c-3 -5 -2 -12 3 -15 5 -3 9 1 9 9 0 17 -3 19 -12 6z"/>
<path d="M119 1223 c0 -5 -2 -15 -4 -24 -1 -9 1 -23 6 -30 7 -12 9 -11 10 1 0
8 2 25 3 38 2 12 -1 22 -6 22 -4 0 -8 -3 -9 -7z"/>
<path d="M90 1186 c0 -8 4 -17 9 -21 6 -3 9 4 8 15 -1 23 -17 28 -17 6z"/>
<path d="M47 1170 c-3 -11 -2 -22 2 -24 4 -3 8 6 9 20 2 29 -4 31 -11 4z"/>
<path d="M73 863 c-21 -8 -15 -18 12 -19 21 -2 24 1 14 12 -6 8 -12 14 -13 13
0 0 -7 -3 -13 -6z"/>
<path d="M1910 590 c0 -5 5 -10 10 -10 6 0 10 5 10 10 0 6 -4 10 -10 10 -5 0
-10 -4 -10 -10z"/>
<path d="M1825 440 c-3 -5 -2 -10 4 -10 5 0 13 5 16 10 3 6 2 10 -4 10 -5 0
-13 -4 -16 -10z"/>
<path d="M230 394 c0 -7 27 -34 34 -34 4 0 1 9 -6 20 -12 19 -28 27 -28 14z"/>
</g>
</svg>
